<mxfile host="app.diagrams.net" modified="2023-11-16T16:21:24.660Z" agent="Mozilla/5.0 (X11; Linux x86_64) AppleWebKit/537.36 (KHTML, like Gecko) Chrome/116.0.0.0 Safari/537.36" etag="G0udG4Xq9GC5hOyQIdIY" version="22.1.2" type="github">
  <diagram id="C5RBs43oDa-KdzZeNtuy" name="Page-1">
    <mxGraphModel dx="1766" dy="554" grid="1" gridSize="10" guides="1" tooltips="1" connect="1" arrows="1" fold="1" page="1" pageScale="1" pageWidth="827" pageHeight="1169" math="0" shadow="0">
      <root>
        <mxCell id="WIyWlLk6GJQsqaUBKTNV-0" />
        <mxCell id="WIyWlLk6GJQsqaUBKTNV-1" parent="WIyWlLk6GJQsqaUBKTNV-0" />
        <mxCell id="Na4lIPI_E4wPr8dJ-i87-30" value="" style="rounded=0;whiteSpace=wrap;html=1;" vertex="1" parent="WIyWlLk6GJQsqaUBKTNV-1">
          <mxGeometry x="354" y="120" width="846" height="240" as="geometry" />
        </mxCell>
        <mxCell id="Na4lIPI_E4wPr8dJ-i87-34" style="edgeStyle=orthogonalEdgeStyle;rounded=0;orthogonalLoop=1;jettySize=auto;html=1;strokeWidth=4;endArrow=block;endFill=1;" edge="1" parent="WIyWlLk6GJQsqaUBKTNV-1" source="Na4lIPI_E4wPr8dJ-i87-0">
          <mxGeometry relative="1" as="geometry">
            <mxPoint x="350" y="320" as="targetPoint" />
          </mxGeometry>
        </mxCell>
        <mxCell id="Na4lIPI_E4wPr8dJ-i87-0" value="Data Augmentation" style="rounded=1;whiteSpace=wrap;html=1;fontSize=20;glass=0;strokeWidth=4;shadow=0;fontStyle=1" vertex="1" parent="WIyWlLk6GJQsqaUBKTNV-1">
          <mxGeometry x="40" y="280" width="200" height="80" as="geometry" />
        </mxCell>
        <mxCell id="Na4lIPI_E4wPr8dJ-i87-20" style="edgeStyle=orthogonalEdgeStyle;rounded=0;orthogonalLoop=1;jettySize=auto;html=1;strokeWidth=4;endArrow=block;endFill=1;" edge="1" parent="WIyWlLk6GJQsqaUBKTNV-1" source="Na4lIPI_E4wPr8dJ-i87-8" target="Na4lIPI_E4wPr8dJ-i87-10">
          <mxGeometry relative="1" as="geometry" />
        </mxCell>
        <mxCell id="Na4lIPI_E4wPr8dJ-i87-8" value="Classification&lt;br&gt;Models" style="rounded=1;whiteSpace=wrap;html=1;fontSize=20;glass=0;strokeWidth=4;shadow=0;fontStyle=1" vertex="1" parent="WIyWlLk6GJQsqaUBKTNV-1">
          <mxGeometry x="400" y="200" width="196" height="80" as="geometry" />
        </mxCell>
        <mxCell id="Na4lIPI_E4wPr8dJ-i87-21" style="edgeStyle=orthogonalEdgeStyle;rounded=0;orthogonalLoop=1;jettySize=auto;html=1;entryX=0;entryY=0.5;entryDx=0;entryDy=0;strokeWidth=4;endArrow=block;endFill=1;" edge="1" parent="WIyWlLk6GJQsqaUBKTNV-1" source="Na4lIPI_E4wPr8dJ-i87-10" target="Na4lIPI_E4wPr8dJ-i87-18">
          <mxGeometry relative="1" as="geometry" />
        </mxCell>
        <mxCell id="Na4lIPI_E4wPr8dJ-i87-10" value="Hyperparameter&lt;br&gt;Optimization" style="rounded=1;whiteSpace=wrap;html=1;fontSize=20;glass=0;strokeWidth=4;shadow=0;fontStyle=1" vertex="1" parent="WIyWlLk6GJQsqaUBKTNV-1">
          <mxGeometry x="680" y="200" width="196" height="80" as="geometry" />
        </mxCell>
        <mxCell id="Na4lIPI_E4wPr8dJ-i87-26" style="edgeStyle=orthogonalEdgeStyle;rounded=0;orthogonalLoop=1;jettySize=auto;html=1;exitX=1;exitY=0.5;exitDx=0;exitDy=0;entryX=0;entryY=0.5;entryDx=0;entryDy=0;strokeWidth=4;endArrow=block;endFill=1;" edge="1" parent="WIyWlLk6GJQsqaUBKTNV-1" source="Na4lIPI_E4wPr8dJ-i87-14" target="Na4lIPI_E4wPr8dJ-i87-0">
          <mxGeometry relative="1" as="geometry" />
        </mxCell>
        <mxCell id="Na4lIPI_E4wPr8dJ-i87-14" value="Alga&lt;br&gt;Image Set" style="rounded=1;whiteSpace=wrap;html=1;fontSize=20;glass=0;strokeWidth=4;shadow=0;fontStyle=1" vertex="1" parent="WIyWlLk6GJQsqaUBKTNV-1">
          <mxGeometry x="-266" y="200" width="196" height="80" as="geometry" />
        </mxCell>
        <mxCell id="Na4lIPI_E4wPr8dJ-i87-16" value="" style="shape=cylinder3;whiteSpace=wrap;html=1;boundedLbl=1;backgroundOutline=1;size=15;strokeWidth=4;" vertex="1" parent="WIyWlLk6GJQsqaUBKTNV-1">
          <mxGeometry x="-10" y="500" width="60" height="60" as="geometry" />
        </mxCell>
        <mxCell id="Na4lIPI_E4wPr8dJ-i87-18" value="Experiments" style="rounded=1;whiteSpace=wrap;html=1;fontSize=20;glass=0;strokeWidth=4;shadow=0;fontStyle=1" vertex="1" parent="WIyWlLk6GJQsqaUBKTNV-1">
          <mxGeometry x="960" y="200" width="196" height="80" as="geometry" />
        </mxCell>
        <mxCell id="Na4lIPI_E4wPr8dJ-i87-32" value="" style="endArrow=none;html=1;rounded=0;strokeWidth=4;" edge="1" parent="WIyWlLk6GJQsqaUBKTNV-1">
          <mxGeometry width="50" height="50" relative="1" as="geometry">
            <mxPoint x="-15" y="240" as="sourcePoint" />
            <mxPoint x="-15" y="160" as="targetPoint" />
          </mxGeometry>
        </mxCell>
        <mxCell id="Na4lIPI_E4wPr8dJ-i87-33" value="" style="endArrow=block;html=1;rounded=0;entryX=-0.002;entryY=0.165;entryDx=0;entryDy=0;entryPerimeter=0;strokeWidth=4;endFill=1;" edge="1" parent="WIyWlLk6GJQsqaUBKTNV-1" target="Na4lIPI_E4wPr8dJ-i87-30">
          <mxGeometry width="50" height="50" relative="1" as="geometry">
            <mxPoint x="-20" y="160" as="sourcePoint" />
            <mxPoint x="540" y="280" as="targetPoint" />
          </mxGeometry>
        </mxCell>
        <mxCell id="Na4lIPI_E4wPr8dJ-i87-37" value="" style="shape=cylinder3;whiteSpace=wrap;html=1;boundedLbl=1;backgroundOutline=1;size=15;strokeWidth=4;" vertex="1" parent="WIyWlLk6GJQsqaUBKTNV-1">
          <mxGeometry x="80" y="480" width="70" height="80" as="geometry" />
        </mxCell>
      </root>
    </mxGraphModel>
  </diagram>
</mxfile>
